# xmcd CD database file
# Copyright (C) 1997 Ti Kan
#
# Track frame offsets:
#  183
#  3438
#  38170
#  54400
#  76960
#  107963
#  121705
#  136150
#  150553
#  155290
#  170648
#  180658
#  197653
#  204743
#  224598
#  248303
#
# Disc length: 3673 seconds
#
# Revision: 1
# Processed by: cddbd v1.4b41PL1 Copyright (c) Steve Scherf et al.
# Submitted via: CDWizzard Release:4.23
#
DISCID=cd0e5710
DTITLE=Choir of Westminster Abbey - Great Music from Great Occasions at W
DTITLE=estminster Abbey
DYEAR=1900
DGENRE=
TTITLE0=Royal Fanfare [Bliss]
TTITLE1=I Was Glad [Parry]
TTITLE2=Set Me As A Seal [Walton]
TTITLE3=Wash Me Thoroughly [S.S. Wesley]
TTITLE4=Te Deum in B flat [Stanford]
TTITLE5=Rejoice in the Lord Alway [Anon]
TTITLE6=The Lord's My Shepherd [Crimond]
TTITLE7=I Will Lift Up Mine Eyes [McKie]
TTITLE8=Wedding Fanfare [Bliss]
TTITLE9=O Clap Your Hands [Vaughan Williams]
TTITLE10=Lord, For Thy Tender Mercies Sake [Hilton]
TTITLE11=Thou Wilt Keep Him in Perfect Peace [S.S. Wesley]
TTITLE12=O Taste and See [Vaughan Williams]
TTITLE13=Whoso Dwelleth Under the Defense [Alcock]
TTITLE14=Old Hundredth [Vaughan Williams]
TTITLE15=Toccata in F [Widor]
EXTD=
EXTT0=
EXTT1=
EXTT2=
EXTT3=
EXTT4=
EXTT5=
EXTT6=
EXTT7=
EXTT8=
EXTT9=
EXTT10=
EXTT11=
EXTT12=
EXTT13=
EXTT14=
EXTT15=
PLAYORDER=
